<?xml version="1.0" encoding="UTF-8" standalone="no"?>
<!-- Created with Inkscape (http://www.inkscape.org/) -->

<svg
   xmlns:dc="http://purl.org/dc/elements/1.1/"
   xmlns:cc="http://creativecommons.org/ns#"
   xmlns:rdf="http://www.w3.org/1999/02/22-rdf-syntax-ns#"
   xmlns:svg="http://www.w3.org/2000/svg"
   xmlns="http://www.w3.org/2000/svg"
   xmlns:sodipodi="http://sodipodi.sourceforge.net/DTD/sodipodi-0.dtd"
   xmlns:inkscape="http://www.inkscape.org/namespaces/inkscape"
   version="1.1"
   id="svg1222"
   width="356.55273"
   height="356.55273"
   sodipodi:docname="rotate-img.svg"
   inkscape:version="0.92.3 (2405546, 2018-03-11)">
  <path
     style="opacity:0.6;fill:#004bff;fill-opacity:1;stroke:#000000;stroke-width:3;stroke-miterlimit:4;stroke-dasharray:35.99999838, 2.99999986999999990;stroke-dashoffset:0;stroke-opacity:1"
     d="M 177.46875 1.3730469 A 175.91891 175.91891 0 0 0 1.5507812 177.29102 A 175.91891 175.91891 0 0 0 177.46875 353.21094 A 175.91891 175.91891 0 0 0 353.38867 177.29102 A 175.91891 175.91891 0 0 0 177.46875 1.3730469 z M 179.62109 63.535156 A 114.75437 114.74037 0 0 1 281.47852 125.67188 L 291.95898 96.917969 C 293.76568 91.960164 299.21639 89.424097 304.18164 91.230469 L 305.77539 91.808594 C 310.74066 93.614969 313.28328 99.061726 311.47656 104.01953 L 289.15625 165.27344 L 288.57617 166.86328 C 286.76947 171.82106 281.31683 174.35715 276.35156 172.55078 L 274.75781 171.9707 L 213.41406 149.6543 C 208.4488 147.84792 205.90616 142.40311 207.71289 137.44531 L 208.29297 135.85352 C 210.09967 130.8957 215.55233 128.35768 220.51758 130.16406 L 250.13281 140.9375 A 79.937862 79.928111 0 0 0 179.62109 98.349609 A 79.937862 79.928111 0 0 0 99.683594 178.27539 A 79.937862 79.928111 0 0 0 179.62109 258.20312 A 79.937862 79.928111 0 0 0 254.08008 207.12305 L 290.60742 207.12305 A 114.75437 114.74037 0 0 1 179.62109 293.01758 A 114.75437 114.74037 0 0 1 64.865234 178.27539 A 114.75437 114.74037 0 0 1 179.62109 63.535156 z "
     id="path960" />
  <metadata
     id="metadata1228">
    <rdf:RDF>
      <cc:Work
         rdf:about="">
        <dc:format>image/svg+xml</dc:format>
        <dc:type
           rdf:resource="http://purl.org/dc/dcmitype/StillImage" />
      </cc:Work>
    </rdf:RDF>
  </metadata>
  <defs
     id="defs1226" />
  <sodipodi:namedview
     pagecolor="#ffffff"
     bordercolor="#666666"
     borderopacity="1"
     objecttolerance="10"
     gridtolerance="10"
     guidetolerance="10"
     inkscape:pageopacity="0"
     inkscape:pageshadow="2"
     inkscape:window-width="1920"
     inkscape:window-height="1016"
     id="namedview1224"
     showgrid="false"
     inkscape:zoom="1.3237874"
     inkscape:cx="335.72933"
     inkscape:cy="102.34296"
     inkscape:window-x="0"
     inkscape:window-y="27"
     inkscape:window-maximized="1"
     inkscape:current-layer="svg1222" />
  <inkscape:clipboard
     style="font-variant-east_asian:normal;opacity:0.35499998;vector-effect:none;fill:#ff0000;fill-opacity:1;stroke:#000000;stroke-width:2.99999996;stroke-linecap:butt;stroke-linejoin:miter;stroke-miterlimit:4;stroke-dasharray:35.9999991,2.99999992;stroke-dashoffset:0;stroke-opacity:1"
     min="207.60156,381.34781"
     max="564.15429,737.90055" />
</svg>
